<?xml version="1.0" encoding="UTF-8"?>
<svg width="92px" height="41px" viewBox="0 0 92 41" version="1.1" xmlns="http://www.w3.org/2000/svg" xmlns:xlink="http://www.w3.org/1999/xlink">
    <!-- Generator: Sketch 42 (36781) - http://www.bohemiancoding.com/sketch -->
    <title>Logo / White</title>
    <desc>Created with Sketch.</desc>
    <defs></defs>
    <g id="Symbols" stroke="none" stroke-width="1" fill="none" fill-rule="evenodd">
        <g id="NavigationStrip-/-Desktop-/-Header" transform="translate(-42.000000, -15.000000)" fill="#FFFFFF">
            <g id="Logo-/-White" transform="translate(42.000000, 15.000000)">
                <path d="M33.9083304,21.9371926 C34.2491951,19.9738736 35.5816287,18.5090801 37.7205084,18.5090801 C40.0447164,18.5090801 41.2224357,20.1918365 41.5016612,21.9371926 L33.9083304,21.9371926 Z M37.7205084,15.6420931 C32.5756913,15.6420931 30.4370171,20.0050702 30.4370171,23.7447353 C30.4370171,27.4841938 32.5756913,31.8473775 37.7205084,31.8473775 C41.2844859,31.8473775 43.0510648,30.3823775 44.5696488,27.4220073 L41.8112954,26.3311597 C41.0054658,28.0453192 39.3938067,28.9799772 37.7205084,28.9799772 C35.178714,28.9799772 33.8462803,26.9546782 33.8462803,24.6484033 L44.910308,24.6484033 L44.910308,23.2460031 C44.910308,19.7245075 42.7097892,15.6420931 37.7205084,15.6420931 L37.7205084,15.6420931 Z M24.7337491,15.6420931 C22.6571251,15.6420931 20.7978819,16.7015375 19.6818017,18.5716799 L19.6818017,15.8914592 L16.4588944,15.8914592 L16.4588944,31.5978048 L19.6818017,31.5978048 L19.6818017,25.2405187 C19.6818017,20.9087382 21.6653506,18.5090801 23.6799246,18.5090801 C25.1366639,18.5090801 26.0974133,19.2571785 26.0974133,21.3760672 L26.0974133,31.5978048 L29.3207316,31.5978048 L29.3207316,20.3478194 C29.3207316,17.2936528 27.460872,15.6420931 24.7337491,15.6420931 L24.7337491,15.6420931 Z M85.6252478,19.6187283 C85.6252478,19.6187283 86.2888964,19.6573625 85.1286415,21.414908 C84.7228502,22.0297494 84.148784,22.7710299 82.4834987,23.2112943 C82.4834987,23.2112943 83.6480683,19.7838016 85.6252478,19.6187283 L85.6252478,19.6187283 Z M91.7869059,25.1376319 C90.9005345,24.5151464 90.1684665,25.2124211 90.1684665,25.2124211 C90.1684665,25.2124211 85.7470879,28.4289753 83.5480074,28.7339167 C81.3491323,29.0390648 80.7278094,27.7841769 81.0378544,26.3088469 C81.0378544,26.3088469 86.7472864,26.5069762 89.1976494,21.414908 C89.8962267,19.940611 91.197019,15.7137832 85.817973,15.8358838 C83.6821753,15.8842282 82.0657905,17.1591563 80.8909477,18.6776657 C79.5069426,18.3115706 77.6544797,18.256615 76.6142158,18.1117885 C77.641741,11.108671 81.7510198,4.63073058 82.9462035,4.27455232 C83.5338304,4.10761959 83.9231845,4.41669307 84.1800145,5.02822883 L84.1853565,4.97203365 C84.4978672,5.83789391 84.5716287,7.24277336 84.5625883,8.76995996 C84.6838121,9.9515049 85.03721,10.0833156 85.03721,10.0833156 C85.0357718,10.1105868 85.9868644,10.3828855 86.4403233,10.289709 C86.903439,10.1659556 87.3314204,9.97629689 87.7456357,9.74242578 C88.0949244,7.84914412 88.3907925,5.58790801 88.1259494,4.31339311 C87.5138724,1.38008746 86.2058889,-0.0692109729 83.7335413,0.238829506 C83.2363186,0.288000287 82.7173167,0.418364836 82.1826995,0.599966165 C77.1254101,2.31867089 75.0738527,6.8855621 75.0738527,6.8855621 C71.2366081,13.8494256 70.5053619,16.9705305 70.3280466,17.6981755 C68.9705463,18.9278582 66.9175506,18.1871975 66.5127867,20.5928469 C67.5339424,21.6781163 69.4472227,22.1803607 69.4472227,23.0257676 C69.4472227,23.8717942 68.0169882,29.7696021 68.5631113,40.9821929 C69.3019596,41.2685404 72.322896,38.0205831 72.4155602,37.0530757 C73.2536476,28.3298073 75.4461533,22.7117357 75.4461533,22.7117357 C75.4461533,22.7117357 77.0594562,22.7631791 78.7378911,22.6633913 C78.4697607,23.3784336 78.3434003,23.8521673 78.3434003,23.8521673 C78.3434003,23.8521673 76.0424097,33.271884 82.0386693,32.5942362 C88.0351344,31.9167951 90.5078929,28.1684528 90.5078929,28.1684528 C90.5078929,28.1684528 92.6732774,25.7601175 91.7869059,25.1376319 L91.7869059,25.1376319 Z M63.750324,15.1764169 C64.456709,15.1757971 66.035083,13.9580971 66.0340557,12.9486499 C66.0336448,12.4953697 64.3159662,8.77264576 61.9950455,8.77491836 C61.3237949,8.77553816 60.3831809,9.61226783 60.3840028,10.3076832 C60.3850301,11.4559655 61.3642713,15.1786895 63.750324,15.1764169 L63.750324,15.1764169 Z M7.686406,28.9799772 C4.86600249,28.9799772 3.40926316,26.3935529 3.40926316,23.7447353 C3.40926316,21.0957111 4.86600249,18.5090801 7.686406,18.5090801 C10.5063986,18.5090801 11.9631379,21.0957111 11.9631379,23.7447353 C11.9631379,26.3935529 10.5063986,28.9799772 7.686406,28.9799772 L7.686406,28.9799772 Z M7.686406,15.6420931 C2.85142856,15.6420931 0,19.319365 0,23.7447353 C0,28.169899 2.85142856,31.8473775 7.686406,31.8473775 C12.5209725,31.8473775 15.3724011,28.169899 15.3724011,23.7447353 C15.3724011,19.319365 12.5209725,15.6420931 7.686406,15.6420931 L7.686406,15.6420931 Z M67.5869521,30.8193363 C67.5405173,30.8228485 67.4979863,30.8261541 67.4560716,30.8261541 C63.6227309,30.8298729 68.2927208,17.2370444 62.8939503,17.9743996 C61.983745,18.0993925 60.5870012,18.8224922 60.1245018,19.0697923 C60.0269065,19.1220621 59.9447209,19.2028427 59.8869855,19.299738 C59.4296228,20.0773801 57.1142497,23.8699348 53.1952305,28.0812676 C52.8734739,28.4267027 52.2944765,28.3058417 52.1539392,27.8540077 C50.1788144,21.4766814 58.5761256,3.67995776 58.7045405,3.27027012 C59.3552448,1.15675295 56.4836808,0.157222538 55.0513917,0 C51.9201212,4.45987245 46.9267311,17.6405341 47.4551844,28.9064277 C47.5447666,30.8170637 49.8958905,32.6365892 51.0715552,32.6355562 C54.5895088,32.6322506 58.1499934,27.4819212 60.1339532,24.3044145 C60.3069538,24.0277772 60.7267166,24.097608 60.8000673,24.4178378 C61.5666532,27.8190923 61.5378883,32.6297714 64.9442749,32.6264658 C65.8692736,32.6256394 66.8534459,32.3822647 67.8676159,32.0254666 C68.5711244,31.7783731 68.3290879,30.7505385 67.5869521,30.8193363 L67.5869521,30.8193363 Z" id="onelife-logo"></path>
            </g>
        </g>
    </g>
</svg>